<svg xmlns="http://www.w3.org/2000/svg" viewBox="0 0 138 70"><path d="M138,0H0L59.51,65.68a12.58,12.58,0,0,0,19,0Z" style="fill:#81b3d3"/><path d="M36.69.46,68.83,38.34l32-37.65Z" style="fill:#23a9e1"/><path d="M61.1,14.72H78.42c-1.29-.8-4.36-4.58-6-3.18-.14.12-4.87-5.74-8-2.92-2.71,2.47-4-.32-7,1.63-3.51,2.32,2,3.69,3.75,4.47m26.73-3.48L78,11.3c3.9-4.5,5.65-4,9.86-.06" style="fill:#fff"/><path d="M97.62,3.59V1.15H99.7ZM48.38,13l.09.08a36.66,36.66,0,0,1,6-5C57.82,5.86,63,3.17,68.83,3.21s11.08,2.72,14.51,5a39,39,0,0,1,6.13,5L87,16.08c-4.49.61-7.71,3.94-12.08,3.21-2.21-.36-2.27-1.63-2.9-2.89-.49-1-1.26-.84-2.27-1.24s-1.47-1.13-3.35-.69c-1.64.39-1.82,2.94-3.86,2.79-1.1-.08-1.18-1.62-2.76-3.6C55.65,8.75,51.85,9.43,49.2,14L68.83,37.3ZM40,1.15V3.06l-1.6-1.91Zm53.88,0h3.22v3L93.89,8ZM89.83,12.61V1.15h3.55V8.56l-3.5,4.1,0-.05M89.32,2.22v9.9a39,39,0,0,0-3.55-3Zm-4.16-.36V8.68c-.46-.33-1-.67-1.47-1s-1.4-.89-2.19-1.34Zm-4.31-.13V6A31.59,31.59,0,0,0,77.73,4.5Zm.51-.58h3.72L81.36,5.7Zm4.31,0H89.3L85.67,8.21Zm-8.8,0h3.86L77.2,4.28l-.33-.12v-3Zm-.51.42V4a25.48,25.48,0,0,0-3.1-.88Zm-4.2,0V2.87c-.72-.12-1.45-.2-2.18-.25Zm-6.77,0,2.25,1.05a20.92,20.92,0,0,0-2.25.25Zm-4.12,0,3.07,1.5a26.61,26.61,0,0,0-3.07.87Zm3.61,1.2-3.3-1.62h3.3Zm3.57-.34L65.69,1.15h2.76Zm.61-1.28h2.88L69.06,2.49Zm3.76,0h3.24L72.82,2.74ZM60.4,4.26,56.9,1.15h3.86v3l-.36.14M56.79,1.74l3.09,2.74A31.37,31.37,0,0,0,56.79,6Zm-4.32.13,3.64,4.48a34.73,34.73,0,0,0-3.64,2.41Zm-4.16.35,3.59,7a37,37,0,0,0-3.59,3.15Zm3.66,6L48.33,1.15H52Zm4.31-2.48L52.55,1.15h3.73ZM43.75,7.5,40.52,3.66V1.15h3.23Zm.51-6.35H47.8V12.31L44.25,8.1ZM69.06,0H36V14.58L68.84,54.52l.22-.28L102,15V0Z" style="fill:#491213"/><path d="M66.23,46l2.61-4.22L71.43,46l-2.59,4.23Z" style="fill:#23a9e1"/><path d="M74.22,30.56c-3.43-2-2.57-3.53.23-4.93,1.46-.73,4.75-3.38,6.13-2.5l-6.36,7.43m-2.34,2.51a25.66,25.66,0,0,0-6.26.06c1.21.3,4.15,1.16,1.41,1.89a2.15,2.15,0,0,0,3.63.08,8.07,8.07,0,0,1-1-.68c1.08-.2,2.1-.82,2.23-1.35m1.24-1.57a1.84,1.84,0,0,0-2.75,0C69.21,29.36,65,30.08,63,29.78c1.07,2.61,9.65,3.1,10.13,1.72m-6.77-2.15c-1.57-.49-6.84-.37-3.39-1.8,1.06-.44,6.59.07,3.39,1.8m1.91-3c-.48-1.08.36-2.36,1.74-1.43,1.2.81-.55,2-1.74,1.43m-2.84.09c-2.26.68-5.27-.79-1.63-1.52,2.26-.46,4.67.5,1.63,1.52h0m-2.66-6.24c-.55,1.63-1.54,1.93-1.43,0,.13-2.27,1.61-1.73,3.2-2.6,1.33-.73,2-3.39,4.31-1.8,1,.71,2.18.12,2.5,1.19,0-.05-3,6.7-1.31,6.7-3.22,0-1.8-3.85-.57-6.43-1.2.57-3.15,4.34-1.55,5-.83,1.1-3.37,2.56-4.69,1.49-1-.81-.45-2.15-.46-3.47m-4,2.82c-5.59,0-1.81-8.65.09-8.13,2.19.69,1.95,8.19-.09,8.13m-6.17-8.15c-2.62-.11-1.52-2.57.26-3.12s5.25,1.11,6.39,2.2a26.2,26.2,0,0,1-6.13.57c-.15-2-.62-1.32-.52.35" style="fill:#dc6243"/><path d="M71.77,25.83c-2.9-3,4.35-2.71,5.51-3.76.85.28,7-5.38,8.49-5-1.07,1.26-3.39,5.29-5,5.29-1.27,0-2.56-.19-3.55.71-1.44,1.33-3.84,2-5.4,2.79" style="fill:#f49774"/><path d="M72.73,22.18c-1.6.86-3.1-2.54-.35-2.21,1.82.22,3.67-.15,5.42.15a5.62,5.62,0,0,1-5.07,2.06" style="fill:#f4b1a4"/><path d="M51.11,20.93a1.85,1.85,0,0,1,.53,1.38c0,.37-.61,1-.18,1.2l1.46-1.84a22.27,22.27,0,0,1-3.54-4.2l-2.05,1.12c.11.43.84,0,1.21,0a1.91,1.91,0,0,1,1.26.75,50.59,50.59,0,0,1-4.13,3.3c-.15,0-.71-.39-.72,0,0,.17.56.66.66.78l1.45,1.72c.4-.18-.07-.47.13-.8s3.18-2.77,3.92-3.41M47.69,16.4c.29-.06.4.29.62,0l-1.59-1.9c-.24-.28-.54-.59-.46,0,.06.41-4,3.67-4.21,3.77s-.49-.27-.72.07L42.75,20a6.68,6.68,0,0,0,.49.57c.22.22.13-.43.14-.38-.06-.33.34-.61.56-.79a39.15,39.15,0,0,1,3.75-3M42,15.81a2.1,2.1,0,0,1-2.74-1.33,3,3,0,0,1,1.35-3.11,1.83,1.83,0,0,1,2.84.54,2.38,2.38,0,0,1-.06,1.62c-.11.33-.39.65,0,.84l1.68-2.13a6.54,6.54,0,0,1-1.49-1.69,3.84,3.84,0,0,0-2.26-1.48c-1.87-.26-3.62,1.66-3.77,3.41a3.75,3.75,0,0,0,.81,2.59c.49.65,1.21,1.06,1.58,1.79a15.39,15.39,0,0,0,2.14-.81,1.33,1.33,0,0,0-.11-.24h0M67.51,39.44a26.85,26.85,0,0,1-3-3.46l-.21-.26a.8.8,0,0,0-.16.13c-.12.09.08.37,0,.56a30.35,30.35,0,0,1-3.9,3.35c-.36.25-.76-.1-1,.21a28.59,28.59,0,0,0,2,2.32c.31.05.1-.53.14-.65a20.14,20.14,0,0,1,2.3-2.08c.22-.18.45.27.58.47a1.16,1.16,0,0,1,.19,1c-.07.24-.46.59-.16.76l1.69-2c.17-.19-.36,0-.3-.06a.58.58,0,0,1-.69,0c-.06,0-.71-.7-.64-.75a3,3,0,0,1,1-.72c.56-.14,1,1,1.11,1.38a2.21,2.21,0,0,1,0,1.14c-.08.25-.32.45,0,.6l1.39-1.89a.58.58,0,0,1-.26-.06c-.09-.06.09,0,0,0m-9.23-8.93a3.37,3.37,0,0,0-2,.8,3.44,3.44,0,0,0-.49,4.75,3.51,3.51,0,0,0,5.06.69,3.47,3.47,0,0,0,.5-4.76A3.65,3.65,0,0,0,58.28,30.52Zm1.19,1.39c1-.11,1.5.8,1.1,1.77a4.84,4.84,0,0,1-2.42,2.38c-1.18.46-2-.54-1.54-1.66A4.89,4.89,0,0,1,59,32a1.82,1.82,0,0,1,.43-.11Zm-2.78-4.63c.31,0,.6.36.82,0L56.06,25.6c-.38.17,0,.35-.12.63s-1.66.5-2.06.57A10.4,10.4,0,0,1,54.63,25c.35-.29.57.28.83-.09l-1.78-2.11c-.2-.24-.36-.67-.64-.44a5.07,5.07,0,0,1,0,1.12c-.06.16-.61,2.36-1.25,2.9A14.55,14.55,0,0,1,50,27.71c-.35.12-.53-.39-.79,0l1.62,1.92c.08.1.39.56.49.58.34.06,0-.58.08-.7a5.85,5.85,0,0,1,2.27-1.86,12.54,12.54,0,0,1,3-.34h0m24.24,6.77a3.36,3.36,0,0,1,.14,1.3c-.07.57-.64,1.9-1.41,1.52a11.72,11.72,0,0,1-2.07-1.65c.52-.61,1-1.14,1.85-.84.24.08.44,0,.19-.17A12.56,12.56,0,0,0,77.52,33c-.18.2.34.56.14,1a4.63,4.63,0,0,1-.61.79c-.46-.39-1.24-.81-.68-1.46a2.37,2.37,0,0,1,1.36-.87c.37-.07,1.19.25,1.3-.15l-2.11-1c.11.52-2.18,2.94-2.68,3.55-.08.08-.43.39-.43.51,0,.28.4.07.42.06.32-.12,4.43,3.31,4.53,3.55s-.15.37,0,.47.15.14.16.12c.26-.3,2.94-3.88,3.49-4-.51-.79-1-1.58-1.53-2.37-.39.16,0,.61.07.9m-4,4.35c-1.35-.87-3.64.83-4,1-.67.31-1.16-.36-.81-1a1.8,1.8,0,0,1,1.5-.84c.18,0,.87.13,1,0s.14-.14,0-.22L73,36.25c-.12.69-.9,1.12-1.35,1.59a3,3,0,0,0-1,2,2,2,0,0,0,1.09,1.72,2.13,2.13,0,0,0,2.16-.33,11.25,11.25,0,0,1,1.25-.76c.64-.3,1.49,0,1.26.82a2.31,2.31,0,0,1-1.56,1.52,2.08,2.08,0,0,1-1.21-.06c-.28-.09-.65-.47-.8-.07l2.26,1.65a1.56,1.56,0,0,1,.7-1A7.09,7.09,0,0,0,77.06,42c.75-1.1,1-2.64-.13-3.58M94.54,10.34a.18.18,0,0,0-.08.07l-.79.95-.82,1c-.17.2-.35.3,0,.47.54-.27,3.51,4.77,3.25,5.49-.47.24-4.49-3.28-4.6-3.52,0-.09.18-.66-.14-.61-.14,0-.48.58-.57.7l-.58.69c.22.32.34,0,.62,0a8.42,8.42,0,0,1,1.46,1.08c-.47,0-1.74.09-1.91.07-.58.08-.27-.43-.66-.6l-1.47,1.79L87.37,19s0,0,0,.07.06.11.37,0,4.25,3.2,4.39,3.37-.1.64.27.8L93.6,21.8c.06-.07.09-.07,0-.13-.27-.23-.31.14-.65.1a39.51,39.51,0,0,1-3.82-3l5.32-.2c.19,0,.74.58.69.79s-.3.36,0,.51c.31-.37.64-.74.94-1.12l.15-.19a.37.37,0,0,0,.13-.17l.11-.13c.28-.32,1.17-1.31,1.07-1.4-.3-.26-.45.3-.85,0a8.51,8.51,0,0,1-.93-1.4c-.17-.29.39-.58.62-.72.51-.32,2.11-.77,2.26.22,0,.17-.17.36,0,.46s.13.16.17.1L101,12.92c-.07-.05-.14-.15-.21-.18-.48.48-5.47-1.52-5.83-1.79-.17-.07-.2-.68-.38-.61Zm-.22,2.55,2.29,1a2.53,2.53,0,0,0-.65.29h0a3.38,3.38,0,0,0-.63.5Zm-6.59,7.75a3.72,3.72,0,0,0-3,1.32,3.45,3.45,0,1,0,4.92-.54,3.32,3.32,0,0,0-1.9-.78ZM86.28,22.2a4,4,0,0,1,1.74.7c.78.53,2.22,1.69,1.48,2.74,0-.06.08-.09,0,.07l0,0c-.8.84-2.18.06-2.92-.47s-2-1.67-1.21-2.67A1.13,1.13,0,0,1,86.28,22.2Zm-3.13,4.28a4,4,0,0,0-3.29,1.58l-1.93,2.31c.23.34.5-.07.83.12s4,3.31,4.12,3.48-.17.36.09.57a27.44,27.44,0,0,0,3.2-4,2.82,2.82,0,0,0-.82-3.18c.08.06.18.15,0,0a3.94,3.94,0,0,0-2.15-.83ZM82.1,28.06a1.1,1.1,0,0,1,.27,0c1.42.36,3.38,2.11,2.13,3.63-.16.19,0,0-.44.42-.19.19-4.17-3-4-3.21a3.05,3.05,0,0,1,2.06-.88Z" style="fill:#fff"/></svg>