<?xml version="1.0" encoding="utf-8"?>
<svg xmlns="http://www.w3.org/2000/svg" xmlns:xlink="http://www.w3.org/1999/xlink">
  <symbol viewBox="0 0 21 22.04" id="calendar" xmlns="http://www.w3.org/2000/svg">
    <path
      d="M19.25 2.04h-2.84V.69a.66.66 0 10-1.32 0v1.35h-3.93V.69a.66.66 0 10-1.32 0v1.35H5.91V.69a.66.66 0 10-1.32 0v1.35H1.75A1.79 1.79 0 000 3.9v16.3a1.79 1.79 0 001.75 1.84h17.5A1.79 1.79 0 0021 20.2V3.9a1.79 1.79 0 00-1.75-1.86zm.44 18.13a.45.45 0 01-.44.46H1.75a.45.45 0 01-.44-.46V3.9a.45.45 0 01.44-.46h2.84v1.38a.66.66 0 101.32 0V3.44h3.94v1.38a.67.67 0 00.65.69.68.68 0 00.66-.69V3.44h3.93v1.38a.66.66 0 101.32 0V3.44h2.84a.45.45 0 01.44.46v16.3z"/>
    <path
      d="M4.59 8.27h2.63v2.07H4.59zm0 3.44h2.63v2.07H4.59zm0 3.44h2.63v2.07H4.59zm4.6 0h2.63v2.07H9.19zm0-3.44h2.63v2.07H9.19zm0-3.44h2.63v2.07H9.19zm4.59 6.88h2.63v2.07h-2.63zm0-3.44h2.63v2.07h-2.63zm0-3.44h2.63v2.07h-2.63z"/>
  </symbol>
  <symbol viewBox="0 0 12 22" id="fb-icon" xmlns="http://www.w3.org/2000/svg">
    <path d="M12 4V0H8a4 4 0 00-4 4v4H0v4h4v10h4V12h4V8H8V4z"/>
  </symbol>
  <symbol viewBox="0 0 20 22" id="filter-button" xmlns="http://www.w3.org/2000/svg">
    <path d="M10 20A10 10 0 010 10v2a10 10 0 0020 0v-2a10 10 0 01-10 10z" opacity=".3"/>
    <circle cx="10" cy="10" r="10"/>
    <circle cx="10" cy="10" r="2"/>
  </symbol>
  <symbol viewBox="0 0 74.7 72" id="icon-1" xmlns="http://www.w3.org/2000/svg">
    <path d="M29.51 65h16V41.21h-16zm2.93-20.9h10.13v18H32.44z"/>
    <path
      d="M72.62 39.25l2.08-2.07-9.91-9.86V0H50.98v13.57L37.35 0 0 37.19l2.08 2.06 7.83-7.79v37.62H5.97V72h63.88v-2.92h-5.06V31.46zM61.85 69.08h-49V28.53l24.5-24.38 24.5 24.38zm0-44.69l-7.94-7.9V2.92h7.94z"/>
    <path
      d="M29.76 27.08a7.75 7.75 0 107.75-7.71 7.73 7.73 0 00-7.75 7.71zm7.75-4.94a4.95 4.95 0 11-5 4.94 5 5 0 015-4.94zm-20.6 19.07h3v3.92h-3zm5.94 0h3v3.92h-3zm-5.94 5.97h3v3.92h-3zm5.94 0h3v3.92h-3zm26-5.97h3v3.92h-3zm5.93 0h3v3.92h-3zm-5.93 5.97h3v3.92h-3zm5.93 0h3v3.92h-3z"/>
  </symbol>
  <symbol viewBox="0 0 74.07 69.96" id="icon-2" xmlns="http://www.w3.org/2000/svg">
    <path
      d="M69.93 46.71H4.13A4.24 4.24 0 000 51v3.51a4.24 4.24 0 004.13 4.31h.95v1A9.89 9.89 0 0014.71 70h44.65A9.89 9.89 0 0069 59.93v-1h.93a4.24 4.24 0 004.15-4.4V51a4.24 4.24 0 00-4.15-4.29zm-3.85 13.18a6.9 6.9 0 01-6.73 7H14.71a6.9 6.9 0 01-6.73-7v-1h58.1v1zm5.06-5.36a1.26 1.26 0 01-1.22 1.27H4.13a1.26 1.26 0 01-1.22-1.27V51a1.26 1.26 0 011.22-1.27h65.8A1.26 1.26 0 0171.15 51zM15.72 38.41l5.32 4.06 5.33-4.06 5.33 4.06 5.32-4.06 5.33 4.06 5.33-4.06 5.33 4.06 5.33-4.06 5.33 4.05 6.2-4.71-1.72-2.46-4.48 3.41-5.33-4.06-5.33 4.06-5.33-4.06-5.33 4.06-5.33-4.06-5.32 4.06-5.33-4.06-5.33 4.06-5.32-4.06-5.33 4.06-4.47-3.41-1.72 2.46 6.19 4.72 5.33-4.06zm-7.64-6.87h60.86c0-.61.06-1.24.06-1.87V28.5C68.31 12.66 54.27 0 37.08 0s-31.32 12.66-32 28.5v1.17c0 .63 0 1.25.07 1.87zM37.08 3c15.54 0 28.3 11.36 29 25.5h-58C8.68 14.36 21.44 3 37.08 3z"/>
    <ellipse cx="37.04" cy="15.26" rx="1.94" ry="2.03"/>
    <ellipse cx="29.26" cy="10.23" rx="1.95" ry="2.03"/>
    <ellipse cx="44.82" cy="10.23" rx="1.95" ry="2.03"/>
  </symbol>
  <symbol viewBox="0 0 63.98 76" id="icon-3" xmlns="http://www.w3.org/2000/svg">
    <path
      d="M61.1 22.5H36.31c13.82-6.9 14.92-11.25 14.41-13.68-1.16-4-5.69-7-10-5.41-5.57 2.09-7.14 10.39-8.65 16.39-1.92-6.07-3.78-13.8-8.13-17.74a7.34 7.34 0 00-5.77-2c-4 .36-9.8 5.38-7.45 11C13 16.39 20.4 19.79 25.29 22.5H2.88A2.88 2.88 0 000 25.37v11.32a2.88 2.88 0 002.88 2.87h.27V76H61V39.56h.11A2.89 2.89 0 0064 36.69V25.37a2.89 2.89 0 00-2.9-2.87zM42.41 5.94c2.11-.31 5 1.3 5.26 3.21.39 2.76-3.4 5.26-5.09 6.42-2.52 1.75-4.93 2.65-7.28 4.06.88-3.69 2.54-13.01 7.11-13.69zm-22.88 10c-2.22-1.48-6.54-4.43-6.44-7.77.11-3.59 5.74-6.57 8.81-3.88 3.86 3.37 5.72 11.1 7.12 16.55a70.09 70.09 0 01-9.49-4.93zM25.5 73H6.14V39.56H25.5V73zm0-36.51H3.05v-11H25.5zm10.16 0V73h-7.17V25.54h7.17zM58 73H38.64V39.56H58zm2.92-36.51H38.64v-11h22.29z"
      fill-rule="evenodd"/>
  </symbol>
  <symbol viewBox="0 0 11 10" id="icon-down-dir" xmlns="http://www.w3.org/2000/svg">
    <path d="M5.5 10L0 0h11"/>
  </symbol>
  <symbol viewBox="0 0 11 10" id="icon-up-dir" xmlns="http://www.w3.org/2000/svg">
    <path d="M5.5 0L0 10h11L5.5 0z"/>
  </symbol>
  <symbol viewBox="0 0 113.47 38.69" id="logo_name" xmlns="http://www.w3.org/2000/svg">
    <path
      d="M46.84 28.2a2.29 2.29 0 00.58-.11v1.4a3.53 3.53 0 01-1.24.22 1.74 1.74 0 01-1.75-1 5.12 5.12 0 01-3.3 1.13c-1.59 0-3.06-.87-3.06-2.68 0-2.24 2.08-2.93 3.9-2.93a11.63 11.63 0 012.28.26v-.31c0-1.09-.8-1.86-2.3-1.86a7.75 7.75 0 00-3.15.66V21.2a10.63 10.63 0 013.35-.58c2.48 0 4 1.18 4 3.83v3.14a.57.57 0 00.51.62.55.55 0 00.18-.01zm-6.76-1.22a1.42 1.42 0 001.53 1.3h.11a3.57 3.57 0 002.53-1v-1.49a10.15 10.15 0 00-1.9-.22c-1.1 0-2.27.35-2.27 1.45zm12.98-6.38a5.31 5.31 0 012.7.67v1.79a4.25 4.25 0 00-2.42-.73 2.89 2.89 0 00-.48 5.76 3.84 3.84 0 00.48 0 5.19 5.19 0 002.55-.67v1.8a6.59 6.59 0 01-2.9.6 4.41 4.41 0 01-4.71-4.11v-.43a4.53 4.53 0 014.39-4.68 2.67 2.67 0 01.39 0zm12.78 7.6a2.29 2.29 0 00.58-.11v1.4a3.53 3.53 0 01-1.24.22 1.74 1.74 0 01-1.75-1 5.12 5.12 0 01-3.3 1.13c-1.59 0-3.06-.87-3.06-2.68 0-2.24 2.08-2.93 3.9-2.93a11.63 11.63 0 012.28.26v-.31c0-1.09-.8-1.86-2.3-1.86a7.75 7.75 0 00-3.15.66V21.2a10.63 10.63 0 013.35-.58c2.48 0 4 1.18 4 3.83v3.14a.57.57 0 00.51.62.55.55 0 00.18-.01zm-6.76-1.22a1.42 1.42 0 001.53 1.3h.11a3.57 3.57 0 002.53-1v-1.49a10.15 10.15 0 00-1.9-.22c-1.11 0-2.27.35-2.27 1.45zm17.59-10.15v12.76h-1.76V28.2a4.08 4.08 0 01-3.35 1.62 4.62 4.62 0 010-9.22 4 4 0 013.15 1.38v-5.15h2zm-4.76 5.48a2.9 2.9 0 000 5.8 3 3 0 002.79-1.84v-2.13a3.05 3.05 0 00-2.79-1.83zM83 20.6c3.48 0 4.68 2.81 4.12 5.34h-6.59c.22 1.57 1.75 2.22 3.35 2.22a6.48 6.48 0 002.77-.62v1.68a7.51 7.51 0 01-3.14.6c-2.68 0-5-1.53-5-4.61a4.4 4.4 0 014.16-4.61zm.09 1.62a2.39 2.39 0 00-2.57 2.2v.06h4.85a2.06 2.06 0 00-1.84-2.26 1.62 1.62 0 00-.44 0zm6.01 7.37v-8.75h1.73v1.14a4 4 0 012.92-1.33 3 3 0 012.73 1.33 4.35 4.35 0 013.06-1.4 3.23 3.23 0 013.32 3.52v5.47h-2v-5.39a1.67 1.67 0 00-1.49-1.83h-.24A3 3 0 0097 23.52v6.07h-2v-5.41a1.67 1.67 0 00-1.49-1.83h-.24a3.11 3.11 0 00-2.32 1.35v5.91H89.1zm22.37-8.75h2l-4.1 9.93c-1 2.28-2.19 3-3.52 3a5.58 5.58 0 01-1.15-.15v-1.64a3 3 0 00.89.13c1 0 1.66-.67 2.17-2l.18-.44-4.16-8.82h2.13l3 6.6zM40.66 1.51v5a4 4 0 012.83-1.2 3.41 3.41 0 013.61 3.2 2.29 2.29 0 010 .37v5.41h-2V9.13a1.9 1.9 0 00-1.69-2.09 1.61 1.61 0 00-.31 0 3.08 3.08 0 00-2.44 1.46v5.8h-2V1.51zm11.77.89v3.12h3.17v1.71h-3.17v4c0 1.15.53 1.53 1.66 1.53a4.66 4.66 0 001.77-.35v1.68a7 7 0 01-2.35.38 2.68 2.68 0 01-3-2.33 2.53 2.53 0 010-.55V7.21h-1.6V5.5h1.57V2.86zm5.67 11.87V5.52h1.73v1.09a4 4 0 012.92-1.33 3 3 0 012.73 1.4 4.35 4.35 0 013.06-1.4 3.23 3.23 0 013.32 3.52v5.47h-2V8.86a1.67 1.67 0 00-1.49-1.83h-.24A3 3 0 0066 8.2v6.07h-2V8.86a1.67 1.67 0 00-1.49-1.83h-.24a3.11 3.11 0 00-2.32 1.35v5.9H58.1zM74.72 1.5h1.95v12.76h-1.95zM15.44-.02h-.16L0 1.6v28l15.28 9.09 15.28-9.09v-28zm13.12 28.47l-13.28 7.9L2 28.45V16.98l13.22 7.87v1.43l-9.07-5.4v1.38l9.11 5.47v1.45l-9.1-5.42v1.38l9.11 5.47 9.19-5.5V19.2l4.1-2.45v11.7zm0-13.16l-3.65 2.14-1.68 1-8-4.76v1.38l6.84 4.07H22l-.15.09-1 .57-5.64-3.36v1.38l4.45 2.65-1.05.7-3.36-2v1.38l2.21 1.3-2.24 1.35-13.16-7.82 13.17-7.92zm0-1.39L15.21 6.03 2 13.89V3.39l13.29-1.41 13.28 1.41V13.9z"/>
  </symbol>
  <symbol viewBox="0 0 18 17" id="star" xmlns="http://www.w3.org/2000/svg">
    <path d="M9 0l2.13 6.49H18l-5.56 4.02L14.57 17 9 12.99 3.44 17l2.12-6.49L0 6.49h6.88L9 0z"/>
  </symbol>
  <symbol viewBox="0 0 16.98 15.01" id="twitter" xmlns="http://www.w3.org/2000/svg">
    <path
      d="M11 .15a3.12 3.12 0 013.58 1.18c.67-.23 1.33-.48 2-.71a2.33 2.33 0 01-.86 1.77A1.56 1.56 0 0017 1.9a3 3 0 01-1.57 2c-.24 6.78-3.18 11.24-10.08 11.11H4.9c-.41 0-4.16-.46-4.9-1.89a6.1 6.1 0 004.69-1.18c-1-.3-2.67-.47-3-2.95a1.9 1.9 0 001.21.12C1.71 8.26.37 7.54.45 5.34a1.86 1.86 0 001.34.47c-.7-.24-2-3.36-.9-4.95 1.82 1.85 3.74 3.61 7.16 3.77C8.25 2.34 9.18.8 11 .15z"/>
  </symbol>
  <symbol viewBox="0 0 20 16" id="youtube" xmlns="http://www.w3.org/2000/svg">
    <path d="M17 0H3a3 3 0 00-3 3v10a3 3 0 003 3h14a3 3 0 003-3V3a3 3 0 00-3-3zM6 12V4l9 4z"/>
  </symbol>
</svg>
