<svg xmlns="http://www.w3.org/2000/svg" viewBox="0 0 456.65 350.88"><path d="M152.31,56.09,149.46,61h-2.72l-.87,1.43h2.75l-6.07,10.39C141.28,75,142.18,77,144.62,77c1.75,0,3.69-1.3,5.55-3.07,0,3.8,5.34,4.55,8.61.46h.67a9.21,9.21,0,0,0,6.18-2.89,2.58,2.58,0,0,0-1.13-1l-.2.23a6.55,6.55,0,0,1-4.56,2.21l2.85-4.85c1.82-3.12.14-6.08-2.7-6.08-2.33,0-4.12.92-5.87,3.9l-1.48,2.56-1.23,2.08-.16.18c-2.18,2.5-4.3,4.48-5.63,4.48-.67,0-1.05-.46-.35-1.64l6.48-11.16h2.46L155,61h-2.5l2.85-4.88Zm7.53,7.84c1,.09,1.45,1.29.42,3l-2.2,3.72h-.15a1.78,1.78,0,0,0-1.77,1.78,2,2,0,0,0,.29,1l0,0c-1.42,2.41-4.87,2-3.07-1.14l2.29-3.93L157.07,66c.93-1.55,2-2.16,2.77-2.09Zm21.93-7.84L178.93,61H176.2l-.87,1.43h2.76L172,72.78C170.74,75,171.64,77,174.08,77a6.82,6.82,0,0,0,3.85-1.62l-.78,1.33h3l4.59-7.88c4.64-5.77,6.7-5,5.4-2.81l-3.92,6.74C185,75,185.89,77,188.33,77c1.8,0,3.79-1.37,5.69-3.2.15,1.86,1.67,3.2,4.09,3.2,3.43,0,6.82-2.64,9.32-5.5a2.58,2.58,0,0,0-1.13-1l-.2.23c-2.18,2.5-5,4.47-7.08,4.47-1.86,0-3-1.14-1.57-3.55l.29-.52c1.94.8,5.6.43,7.86-3.44l.44-.75c1.63-2.75.06-4.82-2.41-4.82A6.4,6.4,0,0,0,198,65.56l-2.93,5-.17.2c-2.18,2.49-4.3,4.47-5.64,4.47-.66,0-1-.46-.35-1.63L193.24,66c1.31-2.26.06-3.9-1.62-3.9-1.31,0-2.71.72-4.21,2.27l4.81-8.29h-3l-8.42,14.44-.17.19c-2.17,2.49-4.3,4.47-5.63,4.47-.67,0-1-.46-.35-1.63L181.1,62.4h2.47l.87-1.43H182l2.84-4.88Zm21.32,8.24c1,0,1.5.86.48,2.61l-.43.74c-1.45,2.44-3.4,2.38-4.53,2l1.94-3.36a3.62,3.62,0,0,1,2.54-2Zm44.31-5.46c-1.71,1.52-1.85,3.21-.78,4.59l.26.34c-1.33,1.87-3.13,4.39-5.11,6.69h0l-.2.23A6.53,6.53,0,0,1,237,72.93l2.85-4.85C241.69,65,240,62,237.16,62c-2.32,0-4.12.92-5.86,3.9l-1.49,2.55-1.24,2.09-.15.18c-2.5,2.84-4.64,4.67-7,5.68L228.16,65h-1.77a3.18,3.18,0,0,0-3.17-2.87,6.71,6.71,0,0,0-5.16,3.45l-4.24,7.22C212.54,75,213.44,77,215.88,77a5.83,5.83,0,0,0,2.88-1l-.85,1.4c-4.06,1.23-6.62,2.87-6.62,5.11,0,2.87,4.44,3.47,6.62-.2l2.29-3.93a18.43,18.43,0,0,0,7.24-4.47c0,3.82,5.34,4.57,8.61.48h.67a9.2,9.2,0,0,0,6.19-2.9c1.45-1.66,2.58-3.15,5-6.39l.4.49a1.44,1.44,0,0,1,.18,1.69l-3.2,5.48C244,75,244.9,77,247.35,77c1.53,0,3.2-1,4.84-2.42-.05,1.39.88,2.42,2.62,2.42a5.8,5.8,0,0,0,2.87-1l-.84,1.4c-4.07,1.23-6.62,2.87-6.62,5.11,0,2.87,4.44,3.47,6.62-.2l2.29-3.93a18.72,18.72,0,0,0,7.38-4.6c.13,1.87,1.65,3.22,4.09,3.22s4.9-1.36,7-3.19c-.12,3.91,5.31,4.71,8.61.58h.67a8.61,8.61,0,0,0,3.36-.85c-.82,2.07-.07,3.46,1.66,3.46s3.51-1.49,5-2.87c-.29,1.61.67,2.87,2.59,2.87,2.49,0,5.37-2.63,7.87-5.5h0c1.71-2,3.23-4,4.3-5.44-1.19,3.09-.55,8.66-3.43,8.66a1.68,1.68,0,0,1-1.42-1.09l-1.89,1A3.29,3.29,0,0,0,308.18,77,7.72,7.72,0,0,0,309,77l.1,0c3.07-.4,6.12-2.81,8.38-5.42a1.9,1.9,0,0,0-1.13-1l-.2.23A18.67,18.67,0,0,1,312.54,74c1-2.84.76-7.2,2.61-11l-2.26-1.21c-1.25,1.7-4,5.6-6.71,8.75h0l-.2.23c-2.17,2.5-4.29,4.47-5.63,4.47-.67,0-1-.46-.35-1.63l6.45-11.16h-3l-5.37,9.27c-2.3,2.06-4.06,3.21-4.65,3-.75-.31,0-1.43.38-2.06l5.89-10.16h-3l-4.73,8.1-.2.22a6.55,6.55,0,0,1-4.56,2.21L290,68.08c1.83-3.12.15-6.08-2.7-6.08-2.32,0-4.12.92-5.86,3.91L280,68.46l-1.23,2.09-.16.17c-2.17,2.5-5,4.48-7.08,4.48-1.86,0-3-1.15-1.57-3.56l.29-.52c1.95.81,5.61.43,7.87-3.44l.44-.75c1.62-2.75.05-4.81-2.41-4.81a6.41,6.41,0,0,0-5.67,3.44l-2.92,5-.18.2c-2.5,2.84-4.64,4.67-7,5.68L267.09,65h-1.77a3.18,3.18,0,0,0-3.17-2.86A6.69,6.69,0,0,0,257,65.56l-2.9,4.93h0l-.2.23c-2.18,2.5-4.3,4.47-5.64,4.47-.66,0-1-.46-.34-1.63l3-5.22a3,3,0,0,0-.44-4l-1.68-2a1.15,1.15,0,0,1,.17-1.72Zm-10.29,5.06c1,.09,1.45,1.29.42,3l-2.2,3.72h-.15a1.78,1.78,0,0,0-1.77,1.78,2,2,0,0,0,.29,1l0,0c-1.42,2.41-4.87,2-3.07-1.14l2.29-3.93L234.34,66c.93-1.55,2-2.16,2.77-2.09Zm50.16,0c1,.09,1.45,1.29.42,3l-2.2,3.72h-.15a1.78,1.78,0,0,0-1.77,1.78,2,2,0,0,0,.29,1l0,0c-1.42,2.41-4.87,2-3.07-1.14l2.29-3.93L284.5,66c.93-1.55,2-2.16,2.77-2.09Zm-11.7.4c1,0,1.49.86.48,2.61l-.43.74c-1.45,2.44-3.4,2.38-4.53,2l2-3.36a3.6,3.6,0,0,1,2.53-2Zm-52.41.2c1,0,1.68.89.85,2.4l-2.29,4c-1.83,2.9-3.66,4.3-4.94,4.3-.67,0-1.05-.45-.35-1.63l4.21-7.25A3.2,3.2,0,0,1,223.16,64.53Zm38.93,0c1,0,1.68.89.84,2.4l-2.29,4c-1.83,2.9-3.66,4.3-4.94,4.3-.66,0-1-.45-.34-1.63l4.21-7.25A3.18,3.18,0,0,1,262.09,64.53ZM216.75,79.44l-1.36,2.41c-.64,1.12-1.66,1-1.66.14s.73-1.66,3-2.55Zm38.93,0-1.37,2.41c-.64,1.12-1.65,1-1.65.14s.72-1.66,3-2.55ZM101,67.83H130v2H101Zm227,0H357v2H328.05Z" transform="translate(-0.38 -0.35)" style="fill:#766458"/><path d="M322.7,37.36V45.1H301.88V.35H322.7V8H309.5V18.83H320V26.5H309.5V37.36ZM289.91.35h7.55V45.1h-7.62v-22l-3,11.38h-7.43l-3-11.38v22h-7.62V.35h7.55L283.11,22ZM258,8h-5.52V37.36H258Zm3-7.67a4.75,4.75,0,0,1,4.7,4.74V40.37A4.79,4.79,0,0,1,261,45.1H249.56a4.75,4.75,0,0,1-4.7-4.73V5.09a4.7,4.7,0,0,1,4.7-4.73ZM233,28.61l7.68-1.79V40.37A4.79,4.79,0,0,1,236,45.1H224.53a4.75,4.75,0,0,1-4.7-4.73V5.08a4.71,4.71,0,0,1,4.7-4.73H236a4.75,4.75,0,0,1,4.7,4.73v9.08L233,16V8h-5.52V37.36H233Zm-16.8,8.75V45.1H198V.35h7.61v37Zm-21.35,0V45.1H174V.35h20.81V8h-13.2V18.83h10.54V26.5H181.62V37.36ZM162.56.35h7.68L169,45.1H154.57l-2-18.47-2,18.47H136.1L135,.35h7.61l.64,37H144l4.76-37h7.55l4.89,37H162Z" transform="translate(-0.38 -0.35)" style="fill:#81b3d3"/><path d="M380.74,214l25.43-74h25.2L457,214H436.83l-3.72-13.35H404.55L400.71,214Zm35.65-52.14-7.55,24.5h20.09l-7.55-24.5c-.39-1.2-.78-2.4-1.16-3.6s-.57-2.55-.81-3.83a12.62,12.62,0,0,1-.35-1.28c-.08-.47-.15-.89-.23-1.28a10.45,10.45,0,0,1-.35,1.28c-.08.38-.15.81-.23,1.28a1,1,0,0,0-.12.46,1,1,0,0,1-.11.35c-.23,1.13-.5,2.26-.82,3.37S416.7,160.73,416.39,161.81ZM298.71,214V140h19.51l27.87,38a39.91,39.91,0,0,1,2,3.48c.7,1.18,1.36,2.38,2,3.6l1.4,3c.46,1,.92,2,1.39,2.91a22,22,0,0,0-.35-2.44c-.08-.78-.15-1.59-.23-2.44-.16-1.58-.28-3.17-.35-4.76s-.12-3.33-.12-5V140h19.4v74h-19.4l-28.1-38.21a22.18,22.18,0,0,1-2.21-3.25q-1.05-2-2-4.06c-.45-1-.91-1.94-1.39-2.91s-.75-1.86-1.16-2.78q.57,3.6.92,7.31c.24,2.48.35,5,.35,7.44V214Zm-88-55a36.74,36.74,0,0,1,14.87-15.1,40.76,40.76,0,0,1,19.86-5.23c.92,0,1.85,0,2.78.12l2.91.23a41.79,41.79,0,0,1,8.47,2.09,39.67,39.67,0,0,1,8.13,3.95,36.14,36.14,0,0,1,12.78,14.28A39.94,39.94,0,0,1,285,177.78c0,.77,0,1.59-.11,2.44a12.25,12.25,0,0,1-.23,2.32,27.11,27.11,0,0,1-.93,4.88A35.66,35.66,0,0,1,267,209.6a41.83,41.83,0,0,1-21.71,6.15,12.63,12.63,0,0,1-1.63-.11h-1.51a46.92,46.92,0,0,1-7.89-1.4,37.39,37.39,0,0,1-7.44-2.9,38,38,0,0,1-15.33-14.52,38.62,38.62,0,0,1-5.57-19.74c0-1,0-2,.12-3a22.54,22.54,0,0,1,.46-3.13,43.42,43.42,0,0,1,1.63-6A36.55,36.55,0,0,1,210.7,159Zm52.84,26.59a21.78,21.78,0,0,0,.58-2.44,15.22,15.22,0,0,0,.47-2.55,12.87,12.87,0,0,0,.11-1.63,10.41,10.41,0,0,0,.12-1.51,8.07,8.07,0,0,0-.12-1.39v-1.4a27.2,27.2,0,0,0-3-9.64,17.86,17.86,0,0,0-6.73-7.2c-.78-.38-1.55-.73-2.32-1s-1.55-.58-2.33-.81a22.37,22.37,0,0,0-2.32-.35,11.27,11.27,0,0,0-2.32-.23,17.94,17.94,0,0,0-10.92,3.71,19.37,19.37,0,0,0-7,9.87l-.23.47v.46a18.4,18.4,0,0,0-.58,2.21c-.15.7-.31,1.43-.46,2.2l-.24,1.63v2.44a3.31,3.31,0,0,0,.12.81,25,25,0,0,0,3.72,11.73,16.34,16.34,0,0,0,9.52,7.2l1.39.47,1.51.23,1.4.23h1.39a18.11,18.11,0,0,0,11-3.6A20.7,20.7,0,0,0,263.54,185.56ZM181.39,207a33.58,33.58,0,0,1-11.85,5.11,80.19,80.19,0,0,1-12.89,1.74q-1.86.12-3.72.12h-23.8V140h25.08c1.24,0,2.44,0,3.6.11a73.15,73.15,0,0,1,12.31,1.74,31.85,31.85,0,0,1,21.37,17.07,40.36,40.36,0,0,1,4.06,15.33,8.27,8.27,0,0,1,.12,1.4v2.9a41.13,41.13,0,0,1-3.95,15.91A32,32,0,0,1,181.39,207ZM149,197.34a2.09,2.09,0,0,1,.69.12h.82a2.47,2.47,0,0,1,.81.12h3.13l2.44-.24a30.34,30.34,0,0,0,5.92-1,17.09,17.09,0,0,0,5.23-2.44,15.45,15.45,0,0,0,5.46-7.2,25.87,25.87,0,0,0,1.86-9.64v-.93a3.71,3.71,0,0,0-.12-.93,23,23,0,0,0-2.09-8.47,16.32,16.32,0,0,0-5.11-6.62,13.23,13.23,0,0,0-5.46-2.67,30,30,0,0,0-6-.82H149ZM69.08,214V140h45.4v16.14H88.93V169h24V184.8h-24v12.54h25.55V214ZM9.67,190.12a.31.31,0,0,1,.12.23.35.35,0,0,1,.23.11A51.54,51.54,0,0,0,17.11,197a16.17,16.17,0,0,0,9.05,3.13.35.35,0,0,1,.24.12h.34a.35.35,0,0,1,.24.12h1.27l1.05-.24a9.57,9.57,0,0,0,3.48-1.39,7.74,7.74,0,0,0,2.67-2.56l.24-.46.23-.46c.15-.55.27-1,.35-1.51a8.74,8.74,0,0,0,.11-1.28,6.34,6.34,0,0,0-2.78-5.23,20.25,20.25,0,0,0-5.81-3.37,17.36,17.36,0,0,0-2.44-.69c-.73-.22-1.46-.42-2.21-.58h-.23a.33.33,0,0,0-.23-.12A37.84,37.84,0,0,1,12,178a16,16,0,0,1-6.86-8.94c-.24-.81-.47-1.63-.69-2.44s-.28-1.78-.35-2.67a3.78,3.78,0,0,1-.12-.82v-2.78a17.37,17.37,0,0,1,.35-1.86,25.72,25.72,0,0,1,1.16-4.65,17.76,17.76,0,0,1,2.09-4.18,21.66,21.66,0,0,1,9.53-8.82,29.6,29.6,0,0,1,12.31-2.67,19.29,19.29,0,0,1,3,.23c1.08.08,2.17.19,3.25.35a39.46,39.46,0,0,1,8.24,2.32,44.27,44.27,0,0,1,7.67,3.83l-6.39,14.29a44.55,44.55,0,0,0-6.62-4.07A16.66,16.66,0,0,0,31,153.42h-.93a9.13,9.13,0,0,0-5,2.44,5.63,5.63,0,0,0-2.32,4.29v.7a2.82,2.82,0,0,0,.34.7,4.22,4.22,0,0,0,.82,1.51,10.24,10.24,0,0,0,1.27,1.28,13.88,13.88,0,0,0,3.72,2q2.44.81,5.11,1.63c1.47.38,2.9.77,4.3,1.16s2.55.62,3.48.93a17.89,17.89,0,0,1,9.76,7.78A22.35,22.35,0,0,1,55,189.19v.58a8.14,8.14,0,0,1-.11,1.39v1.28a28.79,28.79,0,0,1-4,11.5,21.56,21.56,0,0,1-8.48,8.36,37.31,37.31,0,0,1-4.06,1.62c-1.39.39-2.78.74-4.18,1.05a27.32,27.32,0,0,1-3.49.46,25.18,25.18,0,0,1-3.36.23H26.05a38.91,38.91,0,0,1-13.71-3A42.75,42.75,0,0,1,.38,205ZM351.25,337.23a2.45,2.45,0,0,1,.17-.87,2.28,2.28,0,0,1,.51-.79,2.5,2.5,0,0,1,.82-.58,2.77,2.77,0,0,1,1.1-.22,3.43,3.43,0,0,1,1.3.26,3,3,0,0,1,1.06.72,3.3,3.3,0,0,1,.57,1.05,4.13,4.13,0,0,1,.2,1.28,6.09,6.09,0,0,1-.45,2.36,6.27,6.27,0,0,1-1.3,1.92,7,7,0,0,1-.84.69q-.43.29-.9.54l-.72.35-.37.17-1.35-2c.25-.09.52-.21.83-.35a4.7,4.7,0,0,0,.85-.54,2.9,2.9,0,0,0,.68-.76,2.1,2.1,0,0,0,.3-1,2.71,2.71,0,0,1-1.72-.58,2,2,0,0,1-.74-1.64m7.84,0a2.46,2.46,0,0,1,.17-.88,2.35,2.35,0,0,1,.5-.79,2.63,2.63,0,0,1,.83-.58,2.75,2.75,0,0,1,1.09-.22,3.39,3.39,0,0,1,1.3.26,2.93,2.93,0,0,1,1.06.72,3.23,3.23,0,0,1,.58,1.05,4.13,4.13,0,0,1,.2,1.28,6,6,0,0,1-.46,2.36,6.07,6.07,0,0,1-1.29,1.92,7.11,7.11,0,0,1-.85.69,8.11,8.11,0,0,1-.89.54c-.28.14-.52.26-.73.35l-.37.17-1.35-2c.25-.09.52-.21.83-.35a5.16,5.16,0,0,0,.86-.54,3,3,0,0,0,.67-.76,2.22,2.22,0,0,0,.31-1,2.67,2.67,0,0,1-1.72-.58,2,2,0,0,1-.74-1.64M94.53,278.52a2.45,2.45,0,0,1-.17.87,2.3,2.3,0,0,1-.5.8,2.67,2.67,0,0,1-1.93.79,3.57,3.57,0,0,1-1.29-.25,2.8,2.8,0,0,1-1.06-.73,3.23,3.23,0,0,1-.58-1,4.33,4.33,0,0,1-.2-1.28,5.88,5.88,0,0,1,.46-2.36,6,6,0,0,1,1.29-1.92,5.13,5.13,0,0,1,.85-.69,7.27,7.27,0,0,1,.89-.54c.28-.15.52-.27.73-.36l.37-.16,1.34,2a8.41,8.41,0,0,0-.82.35,4.12,4.12,0,0,0-.86.54,2.82,2.82,0,0,0-.67.75,2.26,2.26,0,0,0-.31,1,2.74,2.74,0,0,1,1.72.57,2,2,0,0,1,.74,1.65m-7.84,0a2.42,2.42,0,0,1-.67,1.67,2.58,2.58,0,0,1-.82.57,2.64,2.64,0,0,1-1.1.22,3.38,3.38,0,0,1-1.3-.25,3,3,0,0,1-1.06-.73,3,3,0,0,1-.57-1,3.76,3.76,0,0,1-.2-1.28,6.05,6.05,0,0,1,.45-2.36,5.83,5.83,0,0,1,1.3-1.92,5.72,5.72,0,0,1,.84-.69,7.57,7.57,0,0,1,.89-.54,6.61,6.61,0,0,1,.73-.35l.37-.17,1.35,2a8.72,8.72,0,0,0-.83.36,4.53,4.53,0,0,0-.86.53,3.24,3.24,0,0,0-.67.76,2.14,2.14,0,0,0-.3,1,2.71,2.71,0,0,1,1.71.57,1.94,1.94,0,0,1,.74,1.65M332,335.39h3.82l11.84-20.63h-3.77Zm-.18,1.49a2.18,2.18,0,0,0-2.18,2.22,2.14,2.14,0,0,0,2.18,2.18,2.18,2.18,0,0,0,2.22-2.18,2.2,2.2,0,0,0-2.22-2.22m-26.35-5.53,1.09-1.88c4.36-6.07,7.34-4.4,6-2.11l-1.82,3.12c-1.13,2-4.43,3.34-5.27.87m25.09,3a2.34,2.34,0,0,0-1.41-1.3l-.26.29a23.57,23.57,0,0,1-4.54,4.1c1.2-3.59.94-9.12,3.27-13.95L324.82,322c-1.56,2.14-5,7.08-8.39,11.08l0,0,0,0-.26.29c-2.72,3.16-5.37,5.66-7,5.66-.83,0-1.63-.83-1.63-2.54v-1.56c2.65.33,5.45-1.42,7.23-4.5l1-1.75c3.52-6-2.22-8-6.07-4.5l5.37-9.34h-3.78l-10.77,18.7a2.87,2.87,0,0,0-.69-.46l-.26.29c-2.72,3.16-6.21,5.67-8.86,5.67-2.32,0-3.7-1.46-2-4.51l3.88-6.75c2.18-3.75,6-3.13,3.78.8l-.54.94h3.09l.54-.94c2-3.49.07-6.11-3-6.11a8,8,0,0,0-7.09,4.36l-3.72,6.38-.23-.13-.25.29c-2.73,3.16-5.38,5.67-7,5.67-.84,0-1.31-.58-.44-2.07l8.07-14.13H282l-6.72,11.73c-2.87,2.61-5.08,4.07-5.81,3.74-.95-.4,0-1.81.47-2.61l7.37-12.86h-3.77l-7.34,12.69a28.37,28.37,0,0,1-3.19,1.94c1.2-3.59.94-9.11,3.27-13.95L263.39,322c-1.56,2.14-10.28,13.7-13.69,17.69a5.4,5.4,0,0,0,1.41,1.31c2.15-2.47,9.34-11.74,10.68-13.52-1.49,3.93-.69,11-4.28,11a2.11,2.11,0,0,1-1.78-1.39l-2.36,1.24a4.12,4.12,0,0,0,4.14,3.05c.36,0,.69,0,1.05-.07,0,0,.07,0,.11,0a16,16,0,0,0,6.36-2.37,2.28,2.28,0,0,0,2.5,2.48c2.07,0,4.39-1.89,6.21-3.63-.36,2,.83,3.63,3.23,3.63s5-1.89,7.44-4.36c0,2.51,2,4.36,5.13,4.36s6.11-1.71,8.74-4L296.17,341H300l4.32-7.52v3c0,3.23.62,4.87,3.67,4.87s6.72-3.34,9.85-7l0,0,0,0c2.15-2.47,4-5.13,5.38-6.91-1.49,3.93-.69,11-4.29,11a2.11,2.11,0,0,1-1.78-1.38l-2.36,1.24a4.12,4.12,0,0,0,4.14,3.05c.36,0,.69,0,1.06-.07,0,0,.07,0,.1,0,3.85-.51,7.67-3.56,10.5-6.87M216,333.25h-.18a2.23,2.23,0,0,0-2.22,2.25,2.45,2.45,0,0,0,.37,1.27l0,.07c-1.78,3.05-6.1,2.47-3.85-1.45l2.87-5,1.82-3.08c2.65-4.51,6.28-2.73,4,1.2Zm-25.43,14.13c-.8,1.42-2.07,1.2-2.07.18s.91-2.1,3.82-3.23Zm-28.74-13.73c-2.29,3.59-4.54,5.3-6.1,5.3-.84,0-1.31-.58-.44-2.07l5.27-9.19c2-3.52,6.07-2.62,4.21.8ZM149.79,318.9c1.12-1.93,2.36-2.76,3.41-2.76,1.42,0,2.07.94,2.07,2.32,0,3.53-4.36,10.83-10.17,9.88h-.76ZM242.56,333l-.25.29c-2.72,3.16-5.38,5.67-7.05,5.67-.83,0-1.3-.58-.43-2.07l5.45-9.55c1.63-2.87.07-4.94-2-4.94-1.63,0-3.34.87-5.23,2.83l1.42-2.47h-3.78l-6.09,10.53a2.92,2.92,0,0,0-.48-.29l-.26.29a8.07,8.07,0,0,1-5.7,2.8l3.56-6.14c2.29-4,.18-7.7-3.38-7.7-2.91,0-5.16,1.16-7.34,4.94l-1.85,3.24-1.62,2.77a1.63,1.63,0,0,0-.34-.19l-.26.29c-3.12,3.59-5.77,5.92-8.75,7.19l10.35-17.73h-3.78L198,334.38c-2.91,2.68-5.16,4.17-5.88,3.85-1-.4,0-1.82.47-2.62L200,322.75h-3.78l-6,10.43-.33-.19-.26.3c-2.72,3.16-5.37,5.66-7,5.66-.83,0-1.3-.58-.43-2.07l5.45-9.55c1.63-2.87.07-4.94-2-4.94-1.63,0-3.34.87-5.23,2.83l1.42-2.47h-3.78l-6,10.45a2.12,2.12,0,0,0-.36-.21l-.25.3c-2.73,3.16-5.38,5.66-7,5.66-.84,0-1.31-.58-.44-2.07l6.11-10.68h-2.15a3.92,3.92,0,0,0-4-3.81c-2,0-4.87,1.59-6.46,4.36l-3.9,6.73a2.16,2.16,0,0,0-.83-.48l-.26.29c-2.72,3.16-4.81,5.66-8.56,5.66-2.58,0-4.14-2.57-1.89-6.43l1.06-1.85a13.31,13.31,0,0,0,2.14.19c4,0,8.61-2.08,11.59-7.27a10.53,10.53,0,0,0,1.53-5.09c0-3.41-2.22-5.63-5-5.63-2.07,0-4.54,1.46-6.24,4.43l-5.89,10.14a6.08,6.08,0,0,1-3.38-5.38,6,6,0,0,1,2.43-4.75l-1.23-2.22a8.33,8.33,0,0,0,.87,14.57l-1.13,2c-2.65,4.58-1.09,9.66,4.25,9.66,4.23,0,6.08-1.88,8.69-4.35-.83,2.37.37,4.35,3,4.35,1.53,0,3.42-1,5.24-2.47.18,1.46,1.34,2.47,3.26,2.47s3.78-1.12,5.72-2.77l-1.39,2.41h3.82L177,330.86c5.78-7.23,8.36-6.29,6.72-3.49l-4.9,8.53c-1.6,2.8-.47,5.38,2.58,5.38,2,0,4.26-1.42,6.44-3.41-.45,2.08.5,3.41,2.39,3.41s3.88-1.53,5.59-3l-2.07,3.56c-5.12,1.52-8.32,3.63-8.32,6.46,0,3.64,5.56,4.4,8.28-.25l2.91-5a23.72,23.72,0,0,0,9.52-6.17c-.52,5.28,6.51,6.48,10.75,1.12h.83a11.06,11.06,0,0,0,4.94-1.45l-2.54,4.4H224l5.78-10.07c5.78-7.23,8.36-6.28,6.72-3.48l-4.9,8.53c-1.6,2.8-.48,5.38,2.58,5.38s6.72-3.34,9.84-7a3.27,3.27,0,0,0-1.42-1.31m118.63-35.57c-2.29,3.74-4.61,5.52-6.21,5.52-.83,0-1.3-.58-.43-2.07l5.26-9.19c2-3.53,6.07-2.62,4.22.8h0Zm-36.18.22c-2.29,3.59-4.55,5.3-6.11,5.3-.83,0-1.3-.58-.43-2.07l5.26-9.19c2-3.53,6.07-2.62,4.22.8Zm-39.92,13.73c-.8,1.42-2.07,1.2-2.07.18s.87-2.1,3.78-3.23Zm8-28.48c1.13-1.93,2.36-2.76,3.42-2.76,6,0,1.52,14.43-8.11,12.2h-.76ZM370.78,297l-.25.29c-2.72,3.16-5.38,5.66-7,5.66-.83,0-1.31-.58-.44-2.07l12.79-22.12h-3.78l-5.55,9.59a4.09,4.09,0,0,0-3.46-2c-2,0-4.86,1.6-6.46,4.36l-3.7,6.38-.23-.14-.26.3c-2.72,3.16-5,5.66-6.67,5.66-.84,0-1.31-.58-.44-2.07l5.45-9.55c1.64-2.87.07-4.95-2-4.95-1.64,0-3.34.88-5.24,2.84l1.42-2.47H341.1l-6,10.45-.36-.21-.26.3c-2.72,3.16-5.37,5.66-7.05,5.66-.83,0-1.3-.58-.43-2.07l6.1-10.68h-2.14a3.93,3.93,0,0,0-4-3.82c-2,0-4.87,1.6-6.47,4.36L316.85,297l-.21.23c-2.72,3.16-5.75,5.67-7.42,5.67-.84,0-1.31-.58-.44-2.07l3.78-6.61c1.31-2.29.69-3.64-.54-5.13l-2.11-2.54a1.48,1.48,0,0,1,.22-2.18l-2-2.14c-2.15,1.92-2.33,4.07-1,5.81l.33.44c-1.67,2.36-3.92,5.56-6.39,8.46a3.49,3.49,0,0,0,.25.32c-3.11,3.58-5.75,5.9-8.73,7.16l4.8-8.21h-3.78l-.4.66c-2,3.52-4.29,6-7.23,6-2.58,0-3-2.58-.8-6.43l1.06-1.85a15.32,15.32,0,0,0,2.14.18c13.44,0,19.95-18,8.1-18-2.07,0-4.54,1.45-6.25,4.43l-5.88,10.13a6.08,6.08,0,0,1-3.38-5.37,6,6,0,0,1,2.43-4.76l-1.23-2.22a8.62,8.62,0,0,0-3.89,7.05,8.53,8.53,0,0,0,4.76,7.52l-1.13,2c-2.65,4.58-2.18,9.67,3.17,9.67a7.64,7.64,0,0,0,4.1-1.2l-1,1.71c-5.12,1.56-8.28,3.63-8.28,6.46,0,3.63,5.56,4.4,8.28-.25l2.91-5c3.92-1.24,7.77-3.92,11.91-8.72a1.92,1.92,0,0,0-.23-.35c1.68-2,3.1-3.88,6-7.75l.5.62a1.83,1.83,0,0,1,.22,2.14l-4,6.94c-1.6,2.79-.48,5.37,2.58,5.37,1.89,0,4.34-1.24,6.38-3,0,1.74,1.14,3,3.3,3,1.52,0,3.41-1,5.23-2.47.18,1.46,1.35,2.47,3.27,2.47s3.78-1.12,5.72-2.77l-1.39,2.41h3.81l5.78-10.06c5.77-7.23,8.35-6.29,6.72-3.49L342,299.89c-1.59,2.8-.47,5.37,2.58,5.37,2,0,3.84-1.38,6-3.33-.2,1.89,1,3.33,3.29,3.33,1.52,0,3.41-1,5.23-2.47.18,1.46,1.34,2.47,3.27,2.47,3.12,0,6.72-3.34,9.84-7a3.19,3.19,0,0,0-1.42-1.3M258.5,291.68c2.18-3.74,6-3.12,3.78.8l-.54.94c-1.82,3.09-4.26,3-5.67,2.51Zm-3.05,13.59c4.29,0,8.54-3.34,11.66-7A3.24,3.24,0,0,0,265.7,297l-.26.3c-2.72,3.16-6.21,5.66-8.86,5.66-2.33,0-3.71-1.45-2-4.5l.37-.66c2.43,1,7,.55,9.84-4.36l.55-.94c2-3.49.07-6.1-3-6.1a8,8,0,0,0-7.08,4.36l-3.68,6.31-.11-.07-.26.3c-2.72,3.16-5.37,5.66-7,5.66-.84,0-1.31-.58-.44-2.07l5.45-9.55c1.63-2.87.07-4.95-2-4.95-1.63,0-3.38.91-5.26,2.88l6-10.5h-3.78l-10.66,18.49a2.34,2.34,0,0,0-.43-.26l-.25.29c-2.73,3.17-5.38,5.67-7.05,5.67-.84,0-1.31-.58-.44-2.07l8.1-14.13h3.09l1.09-1.82h-3.12l3.56-6.17h-3.78l-3.56,6.17h-3.41l-1.09,1.82h3.45L222,299.89c-1.6,2.8-.47,5.38,2.58,5.38,1.88,0,3.93-1.22,5.94-3l-1.5,2.6h3.82l5.74-10c5.81-7.3,8.39-6.36,6.76-3.56l-4.91,8.54c-1.6,2.8-.47,5.38,2.58,5.38,2.3,0,4.85-1.81,7.28-4.21.11,2.43,2,4.21,5.12,4.21M128,291.68c2.18-3.74,6-3.13,3.78.8l-.55.94c-1.81,3.09-4.25,3-5.67,2.51Zm23.12,9.19,5.27-9.19c2-3.53,6.06-2.62,4.21.8l-2.94,5.16c-2.29,3.59-4.54,5.3-6.11,5.3-.83,0-1.3-.58-.43-2.07m54-9.19c2.18-3.74,6-3.13,3.78.8l-.55.94c-1.81,3.09-4.25,3-5.66,2.51Zm-57.8,9.53c-.63,2.24.57,4.06,3.13,4.06,1.52,0,3.41-1,5.23-2.47.18,1.45,1.35,2.47,3.27,2.47s4.22-1.39,6.37-3.35c-.42,2,.54,3.35,2.4,3.35,2.07,0,4.4-1.89,6.21-3.64-.36,2,.84,3.64,3.24,3.64,3.12,0,6.72-3.35,9.84-7a1.3,1.3,0,0,0-.1-.15c2.09-2.43,3.93-5,5.25-6.75-1.49,3.92-.69,11-4.29,11a2.11,2.11,0,0,1-1.78-1.38l-2.36,1.23a4.12,4.12,0,0,0,4.14,3.06,9.28,9.28,0,0,0,1-.08s.08,0,.11,0c2.78-.37,5.53-2.06,7.91-4.21.06,2.49,2,4.32,5.13,4.32,4.29,0,8.54-3.34,11.66-7a3.27,3.27,0,0,0-1.42-1.31l-.25.29c-2.72,3.16-6.21,5.67-8.86,5.67-2.33,0-3.71-1.45-2-4.5l.37-.66c2.43,1,7,.55,9.84-4.36l.55-.94c2-3.49.07-6.1-3-6.1a8,8,0,0,0-7.08,4.35l-3.67,6.3-.1,0-.26.29a23.65,23.65,0,0,1-4.54,4.11c1.2-3.6.95-9.12,3.27-13.95l-2.83-1.53c-1.56,2.14-5,7.09-8.4,11.08a1.34,1.34,0,0,1,.11.14l-.13.15c-2.72,3.16-5.38,5.67-7.05,5.67-.83,0-1.31-.58-.43-2.07l8.06-14.14H182.1l-6.72,11.74c-2.87,2.61-5.08,4.07-5.81,3.74-.95-.4,0-1.81.47-2.61l7.37-12.86h-3.77l-6,10.4a2,2,0,0,0-.28-.16l-.26.29c-2.72,3.16-5.37,5.67-7.05,5.67-.83,0-1.3-.58-.43-2.07l6.1-10.69h-2.14a3.93,3.93,0,0,0-4-3.81c-2,0-4.87,1.6-6.47,4.36l-3.83,6.61a3,3,0,0,0-.57-.36l-.26.29c-2.72,3.16-5.86,5.66-8.51,5.66-2.32,0-3.7-1.45-2-4.5l3.89-6.76c2.18-3.74,6-3.12,3.77.8l-.54.95h3.09l.54-.95c2-3.48.07-6.1-3-6.1s-5.14,1.6-6.73,4.36l-3.76,6.44a2,2,0,0,0-.35-.19l-.25.29c-2.72,3.16-6,5.66-8.6,5.66-2.32,0-3.7-1.45-2-4.5l.36-.65c2.44,1,7,.54,9.85-4.36l.54-.95c2-3.48.08-6.1-3-6.1a8,8,0,0,0-7.09,4.36l-4,6.79c-2.36,4-.32,7.74,4.14,7.74,3.33,0,6-2,8.79-4.62-.1,2.64,1.86,4.62,5.12,4.62,3.09,0,5.8-1.73,8.44-4.05m-36.87-14,3-5.24c2.76-4.75,6.29-2,4.4,1.6-1.45,2.73-3.6,3.56-7.45,3.64m-4.07,17.22a10.89,10.89,0,0,1-5.45-1.31,18.79,18.79,0,0,0,1.89-2.69l6.36-11,1,.11c8.86,1.86,5.34,14.9-3.82,14.9M115.67,289c7.63-2.58,8.21-12.13.69-12.13-2.07,0-4.54,1.45-6.25,4.43L99.94,298.87A14.89,14.89,0,0,1,98.49,301c-2.62-3.59-1.85-9,1.81-11.33l-1.52-1.93c-7.92,5.05-5.6,19.62,7.63,19.62,11.3,0,16.53-13.55,9.26-18.38" transform="translate(-0.38 -0.35)" style="fill:#fff"/></svg>